<svg xmlns="http://www.w3.org/2000/svg" viewBox="0 0 32 32">
  <!-- Background circle -->
  <circle cx="16" cy="16" r="15" fill="#FF6B6B"/>
  
  <!-- Gear symbol -->
  <g fill="white">
    <!-- Main gear -->
    <path d="M16 10a6 6 0 100 12 6 6 0 000-12zm0 9a3 3 0 110-6 3 3 0 010 6z"/>
    <path d="M16 6c-.6 0-1 .4-1 1v2.1c-.3.1-.6.2-.9.3l-1.5-1.5c-.4-.4-1-.4-1.4 0-.4.4-.4 1 0 1.4l1.5 1.5c-.1.3-.2.6-.3.9H10c-.6 0-1 .4-1 1s.4 1 1 1h2.1c.1.3.2.6.3.9l-1.5 1.5c-.4.4-.4 1 0 1.4.4.4 1 .4 1.4 0l1.5-1.5c.3.1.6.2.9.3V22c0 .6.4 1 1 1s1-.4 1-1v-2.1c.3-.1.6-.2.9-.3l1.5 1.5c.4.4 1 .4 1.4 0 .4-.4.4-1 0-1.4l-1.5-1.5c.1-.3.2-.6.3-.9H22c.6 0 1-.4 1-1s-.4-1-1-1h-2.1c-.1-.3-.2-.6-.3-.9l1.5-1.5c.4-.4.4-1 0-1.4-.4-.4-1-.4-1.4 0l-1.5 1.5c-.3-.1-.6-.2-.9-.3V7c0-.6-.4-1-1-1z"/>
  </g>
</svg>